<svg xmlns="http://www.w3.org/2000/svg" viewBox="0 0 128 128" role="img" aria-label="CBAM">
  <defs>
    <radialGradient id="bg" cx="42%" cy="45%" r="72%">
      <stop offset="0" stop-color="#dff3b2" />
      <stop offset="0.38" stop-color="#4d7f2b" />
      <stop offset="1" stop-color="#143a16" />
    </radialGradient>
    <radialGradient id="globe" cx="42%" cy="35%" r="62%">
      <stop offset="0" stop-color="#ffffff" />
      <stop offset="0.42" stop-color="#dcefd9" />
      <stop offset="0.75" stop-color="#78a96b" />
      <stop offset="1" stop-color="#2f6b3c" />
    </radialGradient>
    <filter id="soft-shadow" x="-30%" y="-30%" width="160%" height="160%">
      <feDropShadow dx="0" dy="5" stdDeviation="5" flood-color="#0b1f0f" flood-opacity="0.45" />
    </filter>
    <symbol id="star" viewBox="-10 -10 20 20">
      <path
        d="M0-9 2.4-2.8 9-2.8 3.8 1.1 5.7 8.4 0 4.3-5.7 8.4-3.8 1.1-9-2.8-2.4-2.8Z"
        fill="#ffd739"
        stroke="#fff3a3"
        stroke-width="1"
      />
    </symbol>
  </defs>

  <rect width="128" height="128" fill="url(#bg)" />
  <path d="M0 103c21-16 42-20 68-17 24 3 41-2 60-15v57H0z" fill="#2f641d" opacity="0.86" />
  <path d="M0 116c28-12 61-11 128-20v32H0z" fill="#6ca32e" opacity="0.75" />

  <circle cx="64" cy="65" r="41" fill="url(#globe)" filter="url(#soft-shadow)" />
  <circle cx="64" cy="65" r="41" fill="none" stroke="#f7fff0" stroke-width="4" opacity="0.82" />
  <path
    d="M38 55c6-9 14-14 25-14 10 0 13-8 24-2 8 5 13 13 15 23-12-5-20-3-29 4-8 6-19 4-27 0-7-3-10-6-8-11Z"
    fill="#2b7b4f"
    opacity="0.72"
  />
  <path
    d="M38 80c7-3 14-2 22 2 10 5 17 4 28-3 7-5 12-6 18-3-6 17-22 29-41 29-12 0-22-5-30-12 0-6 1-10 3-13Z"
    fill="#1f6f3e"
    opacity="0.72"
  />
  <path
    d="M30 68c13-9 25-11 36-9 13 2 20 2 32-5"
    fill="none"
    stroke="#ffffff"
    stroke-width="3"
    opacity="0.72"
  />

  <g transform="translate(64 64)">
    <use href="#star" width="18" height="18" x="-9" y="-61" />
    <use href="#star" width="18" height="18" x="18.5" y="-53.5" />
    <use href="#star" width="18" height="18" x="38.5" y="-33.5" />
    <use href="#star" width="18" height="18" x="46" y="-6" />
    <use href="#star" width="18" height="18" x="38.5" y="21.5" />
    <use href="#star" width="18" height="18" x="18.5" y="41.5" />
    <use href="#star" width="18" height="18" x="-9" y="49" />
    <use href="#star" width="18" height="18" x="-36.5" y="41.5" />
    <use href="#star" width="18" height="18" x="-56.5" y="21.5" />
    <use href="#star" width="18" height="18" x="-64" y="-6" />
    <use href="#star" width="18" height="18" x="-56.5" y="-33.5" />
    <use href="#star" width="18" height="18" x="-36.5" y="-53.5" />
  </g>

  <text
    x="64"
    y="78"
    text-anchor="middle"
    font-family="Arial, Helvetica, sans-serif"
    font-size="26"
    font-weight="900"
    fill="#ffffff"
    stroke="#5b8b4a"
    stroke-width="1.5"
    paint-order="stroke"
  >
    CBAM
  </text>
</svg>
